<svg width="1280" height="720" viewBox="0 0 1280 720" xmlns="http://www.w3.org/2000/svg">
  <defs>
    <linearGradient id="skyGradient" x1="0%" y1="0%" x2="0%" y2="100%">
      <stop offset="0%" style="stop-color:#001a4d;stop-opacity:1" />
      <stop offset="40%" style="stop-color:#0066cc;stop-opacity:1" />
      <stop offset="70%" style="stop-color:#33ccff;stop-opacity:1" />
      <stop offset="100%" style="stop-color:#ccffff;stop-opacity:1" />
    </linearGradient>
  </defs>
  
  <!-- Sky background -->
  <rect width="1280" height="720" fill="url(#skyGradient)"/>
  
  <!-- Stars -->
  <circle cx="50" cy="80" r="1.5" fill="white" opacity="0.9"/>
  <circle cx="150" cy="40" r="1" fill="white" opacity="0.8"/>
  <circle cx="280" cy="120" r="1.5" fill="white" opacity="0.7"/>
  <circle cx="380" cy="60" r="1" fill="white" opacity="0.9"/>
  <circle cx="520" cy="100" r="1.5" fill="white" opacity="0.8"/>
  <circle cx="650" cy="50" r="1" fill="white" opacity="0.7"/>
  <circle cx="780" cy="130" r="1.5" fill="white" opacity="0.9"/>
  <circle cx="900" cy="70" r="1" fill="white" opacity="0.8"/>
  <circle cx="1050" cy="110" r="1.5" fill="white" opacity="0.7"/>
  <circle cx="1180" cy="45" r="1" fill="white" opacity="0.9"/>
  <circle cx="120" cy="200" r="1" fill="white" opacity="0.7"/>
  <circle cx="420" cy="180" r="1.5" fill="white" opacity="0.8"/>
  <circle cx="680" cy="220" r="1" fill="white" opacity="0.9"/>
  <circle cx="950" cy="190" r="1.5" fill="white" opacity="0.7"/>
  
  <!-- Mountains - light gray/green -->
  <path d="M 0 420 L 120 320 L 200 380 L 280 300 L 360 370 L 440 310 L 520 360 L 600 290 L 680 350 L 760 310 L 840 360 L 920 320 L 1000 370 L 1080 330 L 1160 380 L 1280 340 L 1280 720 L 0 720 Z" fill="#66aa66" opacity="0.6"/>
  
  <!-- Mountains - dark green -->
  <path d="M 0 480 L 100 400 L 180 450 L 260 380 L 340 430 L 420 370 L 500 420 L 580 350 L 660 410 L 740 370 L 820 420 L 900 380 L 980 430 L 1060 390 L 1140 450 L 1280 400 L 1280 720 L 0 720 Z" fill="#2d5016" opacity="0.8"/>
  
  <!-- Foreground forest - dark green -->
  <ellipse cx="0" cy="650" rx="200" ry="80" fill="#1a3a0a"/>
  <ellipse cx="400" cy="680" rx="250" ry="60" fill="#1a3a0a"/>
  <ellipse cx="900" cy="670" rx="280" ry="70" fill="#1a3a0a"/>
  <ellipse cx="1280" cy="650" rx="200" ry="80" fill="#1a3a0a"/>
</svg>
